<mxfile host="Electron" modified="2024-05-11T13:29:49.173Z" agent="Mozilla/5.0 (Windows NT 10.0; Win64; x64) AppleWebKit/537.36 (KHTML, like Gecko) draw.io/24.2.5 Chrome/120.0.6099.109 Electron/28.1.0 Safari/537.36" etag="SLt1Cx-GpiZHXGbZb7PY" version="24.2.5" type="device">
  <diagram name="Page-1" id="vEJBixH22AsfrBXuC-Qv">
    <mxGraphModel dx="892" dy="550" grid="0" gridSize="10" guides="1" tooltips="1" connect="1" arrows="1" fold="1" page="0" pageScale="1" pageWidth="850" pageHeight="1100" math="0" shadow="0">
      <root>
        <mxCell id="0" />
        <mxCell id="1" parent="0" />
        <mxCell id="bWjtif1wnqeVgPwnCWoa-1" value="Quản lý" style="shape=umlActor;verticalLabelPosition=bottom;verticalAlign=top;html=1;outlineConnect=0;fontSize=15;" parent="1" vertex="1">
          <mxGeometry x="231" y="344" width="30" height="60" as="geometry" />
        </mxCell>
        <mxCell id="bWjtif1wnqeVgPwnCWoa-16" style="rounded=0;orthogonalLoop=1;jettySize=auto;html=1;dashed=1;endArrow=classic;endFill=0;endSize=10;jumpSize=7;fontSize=15;" parent="1" source="bWjtif1wnqeVgPwnCWoa-2" target="bWjtif1wnqeVgPwnCWoa-4" edge="1">
          <mxGeometry relative="1" as="geometry" />
        </mxCell>
        <mxCell id="bWjtif1wnqeVgPwnCWoa-20" value="&lt;font style=&quot;font-size: 15px;&quot;&gt;&amp;lt;&amp;lt;include&amp;gt;&amp;gt;&lt;/font&gt;" style="edgeLabel;html=1;align=center;verticalAlign=middle;resizable=0;points=[];fontSize=15;" parent="bWjtif1wnqeVgPwnCWoa-16" vertex="1" connectable="0">
          <mxGeometry x="0.0218" relative="1" as="geometry">
            <mxPoint as="offset" />
          </mxGeometry>
        </mxCell>
        <mxCell id="bWjtif1wnqeVgPwnCWoa-22" style="edgeStyle=none;rounded=0;jumpSize=7;orthogonalLoop=1;jettySize=auto;html=1;dashed=1;strokeColor=default;align=center;verticalAlign=middle;fontFamily=Helvetica;fontSize=15;fontColor=default;labelBackgroundColor=default;endArrow=classic;endFill=0;endSize=10;" parent="1" source="bWjtif1wnqeVgPwnCWoa-2" target="bWjtif1wnqeVgPwnCWoa-8" edge="1">
          <mxGeometry relative="1" as="geometry" />
        </mxCell>
        <mxCell id="bWjtif1wnqeVgPwnCWoa-23" style="edgeStyle=none;rounded=0;jumpSize=7;orthogonalLoop=1;jettySize=auto;html=1;dashed=1;strokeColor=default;align=center;verticalAlign=middle;fontFamily=Helvetica;fontSize=15;fontColor=default;labelBackgroundColor=default;endArrow=classic;endFill=0;endSize=10;" parent="1" source="bWjtif1wnqeVgPwnCWoa-2" target="bWjtif1wnqeVgPwnCWoa-7" edge="1">
          <mxGeometry relative="1" as="geometry" />
        </mxCell>
        <mxCell id="bWjtif1wnqeVgPwnCWoa-25" style="edgeStyle=none;rounded=0;jumpSize=7;orthogonalLoop=1;jettySize=auto;html=1;dashed=1;strokeColor=default;align=center;verticalAlign=middle;fontFamily=Helvetica;fontSize=15;fontColor=default;labelBackgroundColor=default;endArrow=classic;endFill=0;endSize=10;" parent="1" source="bWjtif1wnqeVgPwnCWoa-2" target="bWjtif1wnqeVgPwnCWoa-9" edge="1">
          <mxGeometry relative="1" as="geometry" />
        </mxCell>
        <mxCell id="bWjtif1wnqeVgPwnCWoa-26" style="edgeStyle=none;rounded=0;jumpSize=7;orthogonalLoop=1;jettySize=auto;html=1;dashed=1;strokeColor=default;align=center;verticalAlign=middle;fontFamily=Helvetica;fontSize=15;fontColor=default;labelBackgroundColor=default;endArrow=classic;endFill=0;endSize=10;" parent="1" source="bWjtif1wnqeVgPwnCWoa-2" target="bWjtif1wnqeVgPwnCWoa-6" edge="1">
          <mxGeometry relative="1" as="geometry" />
        </mxCell>
        <mxCell id="bWjtif1wnqeVgPwnCWoa-27" style="edgeStyle=none;rounded=0;jumpSize=7;orthogonalLoop=1;jettySize=auto;html=1;dashed=1;strokeColor=default;align=center;verticalAlign=middle;fontFamily=Helvetica;fontSize=15;fontColor=default;labelBackgroundColor=default;endArrow=classic;endFill=0;endSize=10;" parent="1" source="bWjtif1wnqeVgPwnCWoa-2" target="bWjtif1wnqeVgPwnCWoa-5" edge="1">
          <mxGeometry relative="1" as="geometry" />
        </mxCell>
        <mxCell id="bWjtif1wnqeVgPwnCWoa-28" style="edgeStyle=none;rounded=0;jumpSize=7;orthogonalLoop=1;jettySize=auto;html=1;dashed=1;strokeColor=default;align=center;verticalAlign=middle;fontFamily=Helvetica;fontSize=15;fontColor=default;labelBackgroundColor=default;endArrow=classic;endFill=0;endSize=10;" parent="1" source="bWjtif1wnqeVgPwnCWoa-2" target="bWjtif1wnqeVgPwnCWoa-12" edge="1">
          <mxGeometry relative="1" as="geometry" />
        </mxCell>
        <mxCell id="bWjtif1wnqeVgPwnCWoa-29" style="edgeStyle=none;rounded=0;jumpSize=7;orthogonalLoop=1;jettySize=auto;html=1;dashed=1;strokeColor=default;align=center;verticalAlign=middle;fontFamily=Helvetica;fontSize=15;fontColor=default;labelBackgroundColor=default;endArrow=classic;endFill=0;endSize=10;" parent="1" source="bWjtif1wnqeVgPwnCWoa-2" target="bWjtif1wnqeVgPwnCWoa-10" edge="1">
          <mxGeometry relative="1" as="geometry" />
        </mxCell>
        <mxCell id="bWjtif1wnqeVgPwnCWoa-31" style="edgeStyle=none;rounded=0;jumpSize=7;orthogonalLoop=1;jettySize=auto;html=1;dashed=1;strokeColor=default;align=center;verticalAlign=middle;fontFamily=Helvetica;fontSize=15;fontColor=default;labelBackgroundColor=default;endArrow=classic;endFill=0;endSize=10;" parent="1" source="bWjtif1wnqeVgPwnCWoa-2" target="bWjtif1wnqeVgPwnCWoa-11" edge="1">
          <mxGeometry relative="1" as="geometry" />
        </mxCell>
        <mxCell id="bWjtif1wnqeVgPwnCWoa-32" style="edgeStyle=none;rounded=0;jumpSize=7;orthogonalLoop=1;jettySize=auto;html=1;dashed=1;strokeColor=default;align=center;verticalAlign=middle;fontFamily=Helvetica;fontSize=15;fontColor=default;labelBackgroundColor=default;endArrow=classic;endFill=0;endSize=10;" parent="1" source="bWjtif1wnqeVgPwnCWoa-2" target="bWjtif1wnqeVgPwnCWoa-13" edge="1">
          <mxGeometry relative="1" as="geometry" />
        </mxCell>
        <mxCell id="bWjtif1wnqeVgPwnCWoa-2" value="Đăng nhập" style="ellipse;whiteSpace=wrap;html=1;fontSize=15;" parent="1" vertex="1">
          <mxGeometry x="367" y="348" width="120" height="52" as="geometry" />
        </mxCell>
        <mxCell id="bWjtif1wnqeVgPwnCWoa-3" value="" style="endArrow=none;html=1;rounded=0;fontSize=15;" parent="1" source="bWjtif1wnqeVgPwnCWoa-1" target="bWjtif1wnqeVgPwnCWoa-2" edge="1">
          <mxGeometry width="50" height="50" relative="1" as="geometry">
            <mxPoint x="516" y="507" as="sourcePoint" />
            <mxPoint x="566" y="457" as="targetPoint" />
          </mxGeometry>
        </mxCell>
        <mxCell id="bWjtif1wnqeVgPwnCWoa-34" style="edgeStyle=none;rounded=0;jumpSize=7;orthogonalLoop=1;jettySize=auto;html=1;strokeColor=default;align=center;verticalAlign=middle;fontFamily=Helvetica;fontSize=15;fontColor=default;labelBackgroundColor=default;endArrow=none;endFill=0;endSize=10;" parent="1" source="bWjtif1wnqeVgPwnCWoa-4" target="bWjtif1wnqeVgPwnCWoa-33" edge="1">
          <mxGeometry relative="1" as="geometry" />
        </mxCell>
        <mxCell id="bWjtif1wnqeVgPwnCWoa-4" value="Quản lý sản phẩm" style="ellipse;whiteSpace=wrap;html=1;fontSize=15;" parent="1" vertex="1">
          <mxGeometry x="558" y="22" width="120" height="52" as="geometry" />
        </mxCell>
        <mxCell id="bWjtif1wnqeVgPwnCWoa-41" style="edgeStyle=none;rounded=0;jumpSize=7;orthogonalLoop=1;jettySize=auto;html=1;strokeColor=default;align=center;verticalAlign=middle;fontFamily=Helvetica;fontSize=15;fontColor=default;labelBackgroundColor=default;endArrow=none;endFill=0;endSize=10;" parent="1" source="bWjtif1wnqeVgPwnCWoa-5" target="bWjtif1wnqeVgPwnCWoa-33" edge="1">
          <mxGeometry relative="1" as="geometry" />
        </mxCell>
        <mxCell id="bWjtif1wnqeVgPwnCWoa-5" value="Quản lý phiếu nhập" style="ellipse;whiteSpace=wrap;html=1;fontSize=15;" parent="1" vertex="1">
          <mxGeometry x="700" y="394" width="120" height="52" as="geometry" />
        </mxCell>
        <mxCell id="bWjtif1wnqeVgPwnCWoa-39" style="edgeStyle=none;rounded=0;jumpSize=7;orthogonalLoop=1;jettySize=auto;html=1;strokeColor=default;align=center;verticalAlign=middle;fontFamily=Helvetica;fontSize=15;fontColor=default;labelBackgroundColor=default;endArrow=none;endFill=0;endSize=10;" parent="1" source="bWjtif1wnqeVgPwnCWoa-6" target="bWjtif1wnqeVgPwnCWoa-33" edge="1">
          <mxGeometry relative="1" as="geometry" />
        </mxCell>
        <mxCell id="bWjtif1wnqeVgPwnCWoa-6" value="Quản lý hóa đơn" style="ellipse;whiteSpace=wrap;html=1;fontSize=15;" parent="1" vertex="1">
          <mxGeometry x="703" y="307" width="120" height="52" as="geometry" />
        </mxCell>
        <mxCell id="bWjtif1wnqeVgPwnCWoa-37" style="edgeStyle=none;rounded=0;jumpSize=7;orthogonalLoop=1;jettySize=auto;html=1;strokeColor=default;align=center;verticalAlign=middle;fontFamily=Helvetica;fontSize=15;fontColor=default;labelBackgroundColor=default;endArrow=none;endFill=0;endSize=10;" parent="1" source="bWjtif1wnqeVgPwnCWoa-7" target="bWjtif1wnqeVgPwnCWoa-33" edge="1">
          <mxGeometry relative="1" as="geometry" />
        </mxCell>
        <mxCell id="bWjtif1wnqeVgPwnCWoa-7" value="Quản lý khách hàng" style="ellipse;whiteSpace=wrap;html=1;fontSize=15;" parent="1" vertex="1">
          <mxGeometry x="641" y="172" width="120" height="52" as="geometry" />
        </mxCell>
        <mxCell id="bWjtif1wnqeVgPwnCWoa-36" style="edgeStyle=none;rounded=0;jumpSize=7;orthogonalLoop=1;jettySize=auto;html=1;strokeColor=default;align=center;verticalAlign=middle;fontFamily=Helvetica;fontSize=15;fontColor=default;labelBackgroundColor=default;endArrow=none;endFill=0;endSize=10;" parent="1" source="bWjtif1wnqeVgPwnCWoa-8" target="bWjtif1wnqeVgPwnCWoa-33" edge="1">
          <mxGeometry relative="1" as="geometry" />
        </mxCell>
        <mxCell id="bWjtif1wnqeVgPwnCWoa-8" value="Quản lý nhân viên" style="ellipse;whiteSpace=wrap;html=1;fontSize=15;" parent="1" vertex="1">
          <mxGeometry x="623" y="107" width="120" height="52" as="geometry" />
        </mxCell>
        <mxCell id="bWjtif1wnqeVgPwnCWoa-38" style="edgeStyle=none;rounded=0;jumpSize=7;orthogonalLoop=1;jettySize=auto;html=1;strokeColor=default;align=center;verticalAlign=middle;fontFamily=Helvetica;fontSize=15;fontColor=default;labelBackgroundColor=default;endArrow=none;endFill=0;endSize=10;" parent="1" source="bWjtif1wnqeVgPwnCWoa-9" target="bWjtif1wnqeVgPwnCWoa-33" edge="1">
          <mxGeometry relative="1" as="geometry" />
        </mxCell>
        <mxCell id="bWjtif1wnqeVgPwnCWoa-9" value="Quản lý nhà cung cấp" style="ellipse;whiteSpace=wrap;html=1;fontSize=15;" parent="1" vertex="1">
          <mxGeometry x="664.5" y="243" width="147" height="52" as="geometry" />
        </mxCell>
        <mxCell id="bWjtif1wnqeVgPwnCWoa-43" style="edgeStyle=none;rounded=0;jumpSize=7;orthogonalLoop=1;jettySize=auto;html=1;strokeColor=default;align=center;verticalAlign=middle;fontFamily=Helvetica;fontSize=15;fontColor=default;labelBackgroundColor=default;endArrow=none;endFill=0;endSize=10;" parent="1" source="bWjtif1wnqeVgPwnCWoa-10" target="bWjtif1wnqeVgPwnCWoa-33" edge="1">
          <mxGeometry relative="1" as="geometry" />
        </mxCell>
        <mxCell id="bWjtif1wnqeVgPwnCWoa-10" value="Quản lý phân quyền" style="ellipse;whiteSpace=wrap;html=1;fontSize=15;" parent="1" vertex="1">
          <mxGeometry x="580" y="513" width="147" height="52" as="geometry" />
        </mxCell>
        <mxCell id="bWjtif1wnqeVgPwnCWoa-44" style="edgeStyle=none;rounded=0;jumpSize=7;orthogonalLoop=1;jettySize=auto;html=1;strokeColor=default;align=center;verticalAlign=middle;fontFamily=Helvetica;fontSize=15;fontColor=default;labelBackgroundColor=default;endArrow=none;endFill=0;endSize=10;" parent="1" source="bWjtif1wnqeVgPwnCWoa-11" target="bWjtif1wnqeVgPwnCWoa-33" edge="1">
          <mxGeometry relative="1" as="geometry" />
        </mxCell>
        <mxCell id="bWjtif1wnqeVgPwnCWoa-11" value="Thống kê" style="ellipse;whiteSpace=wrap;html=1;fontSize=15;" parent="1" vertex="1">
          <mxGeometry x="544" y="573" width="113" height="52" as="geometry" />
        </mxCell>
        <mxCell id="bWjtif1wnqeVgPwnCWoa-42" style="edgeStyle=none;rounded=0;jumpSize=7;orthogonalLoop=1;jettySize=auto;html=1;strokeColor=default;align=center;verticalAlign=middle;fontFamily=Helvetica;fontSize=15;fontColor=default;labelBackgroundColor=default;endArrow=none;endFill=0;endSize=10;" parent="1" source="bWjtif1wnqeVgPwnCWoa-12" target="bWjtif1wnqeVgPwnCWoa-33" edge="1">
          <mxGeometry relative="1" as="geometry" />
        </mxCell>
        <mxCell id="bWjtif1wnqeVgPwnCWoa-12" value="Quản lý tài khoản" style="ellipse;whiteSpace=wrap;html=1;fontSize=15;" parent="1" vertex="1">
          <mxGeometry x="652" y="456" width="120" height="52" as="geometry" />
        </mxCell>
        <mxCell id="bWjtif1wnqeVgPwnCWoa-40" style="edgeStyle=none;rounded=0;jumpSize=7;orthogonalLoop=1;jettySize=auto;html=1;strokeColor=default;align=center;verticalAlign=middle;fontFamily=Helvetica;fontSize=15;fontColor=default;labelBackgroundColor=default;endArrow=none;endFill=0;endSize=10;" parent="1" source="bWjtif1wnqeVgPwnCWoa-13" target="bWjtif1wnqeVgPwnCWoa-33" edge="1">
          <mxGeometry relative="1" as="geometry" />
        </mxCell>
        <mxCell id="bWjtif1wnqeVgPwnCWoa-13" value="Đăng xuất" style="ellipse;whiteSpace=wrap;html=1;fontSize=15;" parent="1" vertex="1">
          <mxGeometry x="835" y="344" width="120" height="52" as="geometry" />
        </mxCell>
        <mxCell id="bWjtif1wnqeVgPwnCWoa-21" style="edgeStyle=orthogonalEdgeStyle;rounded=0;orthogonalLoop=1;jettySize=auto;html=1;exitX=0.5;exitY=1;exitDx=0;exitDy=0;fontSize=15;" parent="1" source="bWjtif1wnqeVgPwnCWoa-7" target="bWjtif1wnqeVgPwnCWoa-7" edge="1">
          <mxGeometry relative="1" as="geometry" />
        </mxCell>
        <mxCell id="bWjtif1wnqeVgPwnCWoa-33" value="Nhân viên" style="shape=umlActor;verticalLabelPosition=bottom;verticalAlign=top;html=1;outlineConnect=0;fontFamily=Helvetica;fontSize=15;fontColor=default;labelBackgroundColor=default;" parent="1" vertex="1">
          <mxGeometry x="1298" y="330" width="30" height="60" as="geometry" />
        </mxCell>
        <mxCell id="RqDPYV5xWyhkUfTJ9eAl-1" value="&lt;font style=&quot;font-size: 15px;&quot;&gt;&amp;lt;&amp;lt;include&amp;gt;&amp;gt;&lt;/font&gt;" style="edgeLabel;html=1;align=center;verticalAlign=middle;resizable=0;points=[];fontSize=15;" vertex="1" connectable="0" parent="1">
          <mxGeometry x="576.9974269807559" y="231.00318329411812" as="geometry" />
        </mxCell>
        <mxCell id="RqDPYV5xWyhkUfTJ9eAl-2" value="&lt;font style=&quot;font-size: 15px;&quot;&gt;&amp;lt;&amp;lt;include&amp;gt;&amp;gt;&lt;/font&gt;" style="edgeLabel;html=1;align=center;verticalAlign=middle;resizable=0;points=[];fontSize=15;" vertex="1" connectable="0" parent="1">
          <mxGeometry x="591.9974269807559" y="266.0031832941181" as="geometry" />
        </mxCell>
        <mxCell id="RqDPYV5xWyhkUfTJ9eAl-3" value="&lt;font style=&quot;font-size: 15px;&quot;&gt;&amp;lt;&amp;lt;include&amp;gt;&amp;gt;&lt;/font&gt;" style="edgeLabel;html=1;align=center;verticalAlign=middle;resizable=0;points=[];fontSize=15;" vertex="1" connectable="0" parent="1">
          <mxGeometry x="591.9974269807559" y="315.0031832941181" as="geometry" />
        </mxCell>
        <mxCell id="RqDPYV5xWyhkUfTJ9eAl-4" value="&lt;font style=&quot;font-size: 15px;&quot;&gt;&amp;lt;&amp;lt;include&amp;gt;&amp;gt;&lt;/font&gt;" style="edgeLabel;html=1;align=center;verticalAlign=middle;resizable=0;points=[];fontSize=15;" vertex="1" connectable="0" parent="1">
          <mxGeometry x="613.9974269807559" y="351.0031832941181" as="geometry" />
        </mxCell>
        <mxCell id="RqDPYV5xWyhkUfTJ9eAl-6" value="&lt;font style=&quot;font-size: 15px;&quot;&gt;&amp;lt;&amp;lt;include&amp;gt;&amp;gt;&lt;/font&gt;" style="edgeLabel;html=1;align=center;verticalAlign=middle;resizable=0;points=[];fontSize=15;" vertex="1" connectable="0" parent="1">
          <mxGeometry x="670.9974269807559" y="370.0031832941181" as="geometry" />
        </mxCell>
        <mxCell id="RqDPYV5xWyhkUfTJ9eAl-8" value="&lt;font style=&quot;font-size: 15px;&quot;&gt;&amp;lt;&amp;lt;include&amp;gt;&amp;gt;&lt;/font&gt;" style="edgeLabel;html=1;align=center;verticalAlign=middle;resizable=0;points=[];fontSize=15;" vertex="1" connectable="0" parent="1">
          <mxGeometry x="601.9974269807559" y="396.0031832941181" as="geometry" />
        </mxCell>
        <mxCell id="RqDPYV5xWyhkUfTJ9eAl-9" value="&lt;font style=&quot;font-size: 15px;&quot;&gt;&amp;lt;&amp;lt;include&amp;gt;&amp;gt;&lt;/font&gt;" style="edgeLabel;html=1;align=center;verticalAlign=middle;resizable=0;points=[];fontSize=15;" vertex="1" connectable="0" parent="1">
          <mxGeometry x="591.9974269807559" y="435.0031832941181" as="geometry" />
        </mxCell>
        <mxCell id="RqDPYV5xWyhkUfTJ9eAl-10" value="&lt;font style=&quot;font-size: 15px;&quot;&gt;&amp;lt;&amp;lt;include&amp;gt;&amp;gt;&lt;/font&gt;" style="edgeLabel;html=1;align=center;verticalAlign=middle;resizable=0;points=[];fontSize=15;" vertex="1" connectable="0" parent="1">
          <mxGeometry x="557.9974269807559" y="473.0031832941181" as="geometry" />
        </mxCell>
        <mxCell id="RqDPYV5xWyhkUfTJ9eAl-12" value="&lt;font style=&quot;font-size: 15px;&quot;&gt;&amp;lt;&amp;lt;include&amp;gt;&amp;gt;&lt;/font&gt;" style="edgeLabel;html=1;align=center;verticalAlign=middle;resizable=0;points=[];fontSize=15;" vertex="1" connectable="0" parent="1">
          <mxGeometry x="526.9974269807559" y="513.0031832941181" as="geometry" />
        </mxCell>
      </root>
    </mxGraphModel>
  </diagram>
</mxfile>
